<svg xmlns="http://www.w3.org/2000/svg" width="20" height="20" viewBox="0 0 20 20">
  <g id="Account_over" transform="translate(-35 -451)">
    <g id="Path_111809" data-name="Path 111809" transform="translate(-1703 5577.913)" fill="none" stroke-linecap="round">
      <path d="M1738-5106.913v-20h20v20l-5.1-2.409-4.869,2.409-4.633-2.409Z" stroke="none"/>
      <path d="M 1748.058349609375 -5109.15576171875 L 1752.017578125 -5111.11474609375 L 1752.884643554688 -5111.5439453125 L 1753.759399414062 -5111.13037109375 L 1756.000122070312 -5110.07080078125 L 1756.000122070312 -5124.9130859375 L 1740.000122070312 -5124.9130859375 L 1740.000122070312 -5109.99462890625 L 1742.588623046875 -5111.14892578125 L 1743.469848632812 -5111.5419921875 L 1744.325805664062 -5111.0966796875 L 1748.058349609375 -5109.15576171875 M 1758.000122070312 -5106.9130859375 L 1752.904541015625 -5109.322265625 L 1748.035888671875 -5106.9130859375 L 1743.403076171875 -5109.322265625 L 1738.000122070312 -5106.9130859375 L 1738.000122070312 -5126.9130859375 L 1758.000122070312 -5126.9130859375 L 1758.000122070312 -5106.9130859375 Z" stroke="none" fill="#f4b832"/>
    </g>
    <g id="Group_281284" data-name="Group 281284" transform="translate(1 287)">
      <line id="Line_398" data-name="Line 398" x2="9" transform="translate(39.5 175)" fill="none" stroke="#f4b832" stroke-linecap="round" stroke-width="2"/>
      <line id="Line_405" data-name="Line 405" x2="7" transform="translate(39.5 171)" fill="none" stroke="#f4b832" stroke-linecap="round" stroke-width="2"/>
    </g>
  </g>
</svg>
