<?xml version="1.0" encoding="UTF-8"?>
<svg width="90px" height="90px" viewBox="0 0 90 90" version="1.1" xmlns="http://www.w3.org/2000/svg" xmlns:xlink="http://www.w3.org/1999/xlink">
    <!-- Generator: Sketch 64 (93537) - https://sketch.com -->
    <title>avatar-icon</title>
    <desc>Created with Sketch.</desc>
    <g id="Page-1" stroke="none" stroke-width="1" fill="none" fill-rule="evenodd">
        <g id="avatar-icon" fill="#cccccc" fill-rule="nonzero">
            <path d="M45.0000001,-2e-05 C20.1827,-2e-05 1.00000001e-07,20.1827 1.00000001e-07,45.00002 C1.00000001e-07,69.81722 20.1827,90.00002 45.0000001,90.00002 C69.8173,90.00002 90.0000001,69.81722 90.0000001,45.00002 C90.0000001,20.1827 69.8173,-2e-05 45.0000001,-2e-05 Z M45,5 C67.1278974,5 85,23.1429299 85,45.6060472 C85,54.3142654 82.3029744,62.3956935 77.7243077,69 C70.2693333,58.0157631 58.4028718,50.8119454 45,50.8119454 C31.5971282,50.8119454 19.7306667,58.0157631 12.2756923,69 C7.69702564,62.3956935 5,54.3142654 5,45.6060472 C5,23.1429299 22.8721026,5 45,5 Z M45,9.99998 C35.9495,9.99998 29,18.31057 29,27.99998 C29,37.68939 35.9495,46.00002 45,46.00002 C54.0505,46.00002 61,37.68939 61,27.99998 C61,18.31057 54.0505,9.99998 45,9.99998 Z M45,14.99998 C50.83979,14.99998 56,20.5475892 56,27.99998 C56,35.4523492 50.83979,40.99998 45,40.99998 C39.16021,40.99998 34,35.4523492 34,27.99998 C34,20.5475892 39.16021,14.99998 45,14.99998 Z M45,56 C57.3703693,56 68.3490049,62.5997786 75,72.8626714 C67.3928733,80.3603107 56.7692126,85 45,85 C33.2307874,85 22.6071267,80.3603107 15,72.8626714 C21.6508876,62.5997786 32.6296307,56 45,56 L45,56 Z" id="Shape"></path>
        </g>
    </g>
</svg>