<?xml version="1.0" encoding="UTF-8"?>
<svg width="22px" height="22px" viewBox="0 0 22 22" version="1.1" xmlns="http://www.w3.org/2000/svg" xmlns:xlink="http://www.w3.org/1999/xlink">
    <!-- Generator: Sketch 64 (93537) - https://sketch.com -->
    <title>calendar-icon</title>
    <desc>Created with Sketch.</desc>
    <g id="Page-1" stroke="none" stroke-width="1" fill="none" fill-rule="evenodd">
        <g id="calendar-icon" fill="#666666" fill-rule="nonzero">
            <path d="M18.313,2.563 L16.625,2.563 L16.625,0.875 L15.5,0.875 L15.5,2.563 L6.5,2.563 L6.5,0.875 L5.375,0.875 L5.375,2.563 L3.688,2.563 C2.137,2.563 0.875,3.825 0.875,5.376 L0.875,18.314 C0.875,19.865 2.137,21.127 3.688,21.127 L18.313,21.127 C19.864,21.127 21.126,19.865 21.126,18.314 L21.126,8.188 L21.126,7.063 L21.126,5.375 C21.125,3.824 19.863,2.563 18.313,2.563 Z M20,18.313 C20,19.243 19.243,20 18.313,20 L3.688,20 C2.757,20 2,19.243 2,18.313 L2,8.188 L20,8.188 L20,18.313 Z M20,7.063 L2,7.063 L2,5.375 C2,4.444 2.757,3.687 3.688,3.687 L5.376,3.687 L5.376,4.812 L6.5,4.812 L6.5,3.688 L15.5,3.688 L15.5,4.813 L16.625,4.813 L16.625,3.688 L18.313,3.688 C19.243,3.688 20,4.444 20,5.375 L20,7.063 Z" id="Shape"></path>
        </g>
    </g>
</svg>