<?xml version="1.0" encoding="UTF-8"?>
<svg width="44px" height="44px" viewBox="0 0 44 44" version="1.1" xmlns="http://www.w3.org/2000/svg" xmlns:xlink="http://www.w3.org/1999/xlink">
    <!-- Generator: Sketch 64 (93537) - https://sketch.com -->
    <title>clock-icon</title>
    <desc>Created with Sketch.</desc>
    <g id="Page-1" stroke="none" stroke-width="1" fill="none" fill-rule="evenodd">
        <g id="clock-icon" fill="#666666" fill-rule="nonzero">
            <path d="M22,0 C9.9,0 0,9.9 0,22 C0,34.1 9.9,44 22,44 C34.1,44 44,34.1 44,22 C44,9.9 34.1,0 22,0 Z M22,42 C11,42 2,33 2,22 C2,11 11,2 22,2 C33,2 42,11 42,22 C42,33 33,42 22,42 Z" id="Shape"></path>
            <polygon id="Path" points="23 8 21 8 21 23 32 23 32 21 23 21"></polygon>
        </g>
    </g>
</svg>