<?xml version="1.0" encoding="UTF-8"?>
<svg width="36px" height="47px" viewBox="0 0 36 47" version="1.1" xmlns="http://www.w3.org/2000/svg" xmlns:xlink="http://www.w3.org/1999/xlink">
    <!-- Generator: Sketch 64 (93537) - https://sketch.com -->
    <title>download-icon</title>
    <desc>Created with Sketch.</desc>
    <g id="Page-1" stroke="none" stroke-width="1" fill="none" fill-rule="evenodd">
        <g id="download-icon" fill="#666666" fill-rule="nonzero">
            <path d="M32.997,46.46 L2.884,46.46 C1.319,46.46 0.049,45.19 0.049,43.625 C0.049,42.06 1.319,40.79 2.884,40.79 L32.997,40.79 C34.562,40.79 35.832,42.06 35.832,43.625 C35.832,45.19 34.563,46.46 32.997,46.46 Z" id="Path"></path>
            <path d="M31.111,22.734 C30.004,21.626 28.208,21.627 27.102,22.733 L20.735,29.099 L20.735,3.272 C20.735,1.707 19.465,0.438 17.9,0.438 C16.335,0.438 15.065,1.707 15.065,3.272 L15.065,29.098 L8.7,22.733 C7.593,21.627 5.798,21.627 4.69,22.733 C3.584,23.84 3.584,25.635 4.69,26.743 L15.829,37.882 C15.904,37.961 16.801,38.778 17.9,38.778 C18.999,38.778 19.81,38.053 19.982,37.87 L31.11,26.743 C32.218,25.636 32.218,23.841 31.111,22.734 Z" id="Path"></path>
        </g>
    </g>
</svg>