<svg xmlns="http://www.w3.org/2000/svg" width="100" height="32" viewBox="0 0 100 32">
  <g id="Logo" transform="translate(251 4378.408)">
    <g id="Group_281266" data-name="Group 281266" transform="translate(-251 -4378.408)">
      <g id="Group_281262" data-name="Group 281262" transform="translate(29.672 1.387)">
        <g id="Group_281261" data-name="Group 281261">
          <path id="Path_111792" data-name="Path 111792" d="M694.673,909.632,692.14,912.6a8.088,8.088,0,0,0-6.112-2.409c-3.7,0-6.353,2.77-6.353,6.824s2.654,6.824,6.353,6.824a7.981,7.981,0,0,0,6.313-2.569l2.574,2.569c-1.93,2.529-5.026,3.974-9.088,3.974-6.353,0-10.777-4.376-10.777-10.8,0-6.463,4.423-10.878,10.777-10.878C689.687,906.14,692.7,907.384,694.673,909.632Z" transform="translate(-675.05 -897.389)" fill="#10205b"/>
          <path id="Path_111793" data-name="Path 111793" d="M1049.271,852.769a10.284,10.284,0,0,1-5.268,1.566c-3.217,0-5.992-1.847-5.992-6.222V837.033H1035v-3.452h3.016V827.72h4.584v5.861h6.313v3.452H1042.6v10.236c0,2.208.844,2.89,2.292,2.89a7.475,7.475,0,0,0,3.217-.923Z" transform="translate(-1012.478 -823.866)" fill="#10205b"/>
          <path id="Path_111794" data-name="Path 111794" d="M1330.271,768.822a2.7,2.7,0,1,1-2.694-2.81A2.662,2.662,0,0,1,1330.271,768.822Z" transform="translate(-1284.231 -766.012)" fill="#f4b80f"/>
          <rect id="Rectangle_2485" data-name="Rectangle 2485" width="4.584" height="21.356" transform="translate(41.055 8.912)" fill="#10205b"/>
          <path id="Path_111795" data-name="Path 111795" d="M1501.336,909.632,1498.8,912.6a8.088,8.088,0,0,0-6.112-2.409c-3.7,0-6.353,2.77-6.353,6.824s2.654,6.824,6.353,6.824a7.981,7.981,0,0,0,6.313-2.569l2.574,2.569c-1.931,2.529-5.027,3.974-9.088,3.974-6.353,0-10.777-4.376-10.777-10.8,0-6.463,4.423-10.878,10.777-10.878C1496.349,906.14,1499.365,907.384,1501.336,909.632Z" transform="translate(-1431.249 -897.389)" fill="#10205b"/>
        </g>
      </g>
      <g id="Group_281263" data-name="Group 281263" transform="translate(0 21.08)">
        <path id="Path_111796" data-name="Path 111796" d="M219.519,1081.352l-4.353,5.7a31.336,31.336,0,0,0-14.418,5.224c.04-.072.077-.146.12-.216a16.367,16.367,0,0,1,3.455-3.908,28.723,28.723,0,0,1,6.368-4.008,34.027,34.027,0,0,1,7.14-2.466c.3-.068.611-.13.918-.189C218.985,1081.439,219.222,1081.4,219.519,1081.352Z" transform="translate(-200.748 -1081.352)" fill="#10205b"/>
      </g>
      <g id="Group_281264" data-name="Group 281264" transform="translate(0 0)">
        <path id="Path_111797" data-name="Path 111797" d="M209.122,766.56l7.478-17.523-2.228-5.241-13.623,32C201.685,774.445,205.485,768.272,209.122,766.56Z" transform="translate(-200.748 -743.796)" fill="#10205b"/>
      </g>
      <g id="Group_281265" data-name="Group 281265" transform="translate(15.189 7.22)">
        <path id="Path_111798" data-name="Path 111798" d="M456.6,883.839l-10.8-24.435-2.251,5.309,8.11,19.126Z" transform="translate(-443.541 -859.404)" fill="#10205b"/>
      </g>
    </g>
  </g>
</svg>
