<svg xmlns="http://www.w3.org/2000/svg" width="20" height="20" viewBox="0 0 20 20">
  <g id="MedAssessments" transform="translate(-35 -255)">
    <g id="Path_111801" data-name="Path 111801" transform="translate(35.001 255)" fill="none" stroke-linecap="round">
      <path d="M10.045,20l-.32-.389a23.585,23.585,0,0,0-3.972-4.167c-.32-.222-.639-.444-1-.722C2.739,13.333-.046,11.444,0,7.444.045,2.556,2.739,0,5.433,0A5.159,5.159,0,0,1,10,2.556,5.177,5.177,0,0,1,14.565.111c2.6,0,5.388,2.278,5.434,7.333,0,3.833-2.6,5.667-4.52,7.056-.411.278-.868.611-1.233.889a25.5,25.5,0,0,0-3.927,4.278Z" stroke="none"/>
      <path d="M 10.02758026123047 16.80767250061035 C 10.03817558288574 16.79523849487305 10.04886054992676 16.78271484375 10.05958080291748 16.77017021179199 C 10.7891206741333 15.91641139984131 11.89059066772461 14.71296119689941 12.99495029449463 13.82810115814209 L 13.01472091674805 13.81225109100342 L 13.03489017486572 13.79692077636719 C 13.47061824798584 13.4655647277832 13.94106674194336 13.12608623504639 14.33091735839844 12.86160182952881 L 14.38103103637695 12.82532119750977 C 16.15767669677734 11.53924560546875 17.9947395324707 10.20922565460205 17.9987735748291 7.453338623046875 C 17.98076248168945 5.615355968475342 17.5389404296875 4.138461589813232 16.7208309173584 3.181781053543091 C 16.13041114807129 2.491350889205933 15.36483097076416 2.111110925674438 14.56514072418213 2.111110925674438 C 13.27639102935791 2.111110925674438 12.35788059234619 2.599370956420898 11.67453098297119 3.647701025009155 L 9.970520973205566 6.261820793151855 L 8.306970596313477 3.621770858764648 C 7.609780788421631 2.515331029891968 6.696540832519531 2.000000953674316 5.432980537414551 2.000000953674316 C 3.751990556716919 2.000000953674316 2.032750606536865 3.876540899276733 1.999210596084595 7.467270851135254 C 1.984510660171509 8.75459098815918 2.343640565872192 9.803900718688965 3.129400730133057 10.76951122283936 C 3.87842059135437 11.68996047973633 4.916000843048096 12.40708065032959 5.831430435180664 13.03978061676025 L 5.885380744934082 13.07707118988037 L 5.922640800476074 13.10283088684082 L 5.958700656890869 13.13025093078613 C 6.28994083404541 13.38214111328125 6.583370685577393 13.58615112304688 6.89430046081543 13.80233097076416 L 6.916250705718994 13.81759071350098 L 6.937780857086182 13.83344078063965 C 8.077205657958984 14.67168998718262 9.201051712036133 15.85296821594238 10.02758026123047 16.80767250061035 M 10.04472064971924 20 L 9.725100517272949 19.61111068725586 C 9.725100517272949 19.61111068725586 7.716020584106445 16.88889122009277 5.75260066986084 15.4444408416748 C 5.432980537414551 15.22222137451172 5.113350391387939 15.00000095367432 4.74807071685791 14.72222137451172 C 2.738990545272827 13.33333110809326 -0.046319380402565 11.4444408416748 -0.0006593786529265344 7.444440841674805 C 0.04500062018632889 2.555551052093506 2.738990545272827 9.5367431640625e-07 5.432980537414551 9.5367431640625e-07 C 7.396390438079834 9.5367431640625e-07 8.948860168457031 0.8888909816741943 9.99906063079834 2.555551052093506 C 11.04926109313965 0.9444409608840942 12.60173034667969 0.1111109554767609 14.56514072418213 0.1111109554767609 C 17.16781044006348 0.1111109554767609 19.95312118530273 2.388890981674194 19.99878120422363 7.444440841674805 C 19.99878120422363 11.27777099609375 17.39611053466797 13.11111068725586 15.47836017608643 14.50000095367432 C 15.06741046905518 14.77778053283691 14.61080074310303 15.11111068725586 14.24552059173584 15.38889122009277 C 12.37342071533203 16.88889122009277 10.31869029998779 19.61111068725586 10.31869029998779 19.66666030883789 L 10.04472064971924 20 Z" stroke="none" fill="#10205b"/>
    </g>
    <path id="Path_111802" data-name="Path 111802" d="M-20637.406,3547.931h4.746l.854-1.193,2.4,3.121,2.512-3.687,1.127,1.759h4.686" transform="translate(20674.383 -3283.016)" fill="none" stroke="#10205b" stroke-linecap="round" stroke-width="2"/>
  </g>
</svg>
