<?xml version="1.0" encoding="UTF-8"?>
<svg width="60px" height="74px" viewBox="0 0 60 74" version="1.1" xmlns="http://www.w3.org/2000/svg" xmlns:xlink="http://www.w3.org/1999/xlink">
    <!-- Generator: Sketch 64 (93537) - https://sketch.com -->
    <title>note-icon</title>
    <desc>Created with Sketch.</desc>
    <g id="Page-1" stroke="none" stroke-width="1" fill="none" fill-rule="evenodd">
        <g id="note-icon" fill="#cccccc" fill-rule="nonzero">
            <path d="M52.834,0.834 L7.166,0.834 C3.582,0.834 0.666,3.75 0.666,7.334 L0.666,66.666 C0.666,70.25 3.582,73.166 7.166,73.166 L52.834,73.166 C56.418,73.166 59.334,70.25 59.334,66.666 L59.334,7.334 C59.334,3.75 56.418,0.834 52.834,0.834 Z M56.334,66.666 C56.334,68.596 54.764,70.166 52.834,70.166 L7.166,70.166 C5.236,70.166 3.666,68.596 3.666,66.666 L3.666,7.334 C3.666,5.404 5.236,3.834 7.166,3.834 L52.834,3.834 C54.764,3.834 56.334,5.404 56.334,7.334 L56.334,66.666 Z M47.166,15.501 L13.833,15.501 C13.005,15.501 12.333,16.173 12.333,17.001 C12.333,17.829 13.005,18.501 13.833,18.501 L47.166,18.501 C47.994,18.501 48.666,17.829 48.666,17.001 C48.666,16.173 47.994,15.501 47.166,15.501 Z M47.166,25.501 L13.833,25.501 C13.005,25.501 12.333,26.173 12.333,27.001 C12.333,27.829 13.005,28.501 13.833,28.501 L47.166,28.501 C47.994,28.501 48.666,27.829 48.666,27.001 C48.666,26.173 47.994,25.501 47.166,25.501 Z M47.166,35.501 L13.833,35.501 C13.005,35.501 12.333,36.173 12.333,37.001 C12.333,37.829 13.005,38.501 13.833,38.501 L47.166,38.501 C47.994,38.501 48.666,37.829 48.666,37.001 C48.666,36.173 47.994,35.501 47.166,35.501 Z M35.166,55.501 L13.833,55.501 C13.005,55.501 12.333,56.173 12.333,57.001 C12.333,57.829 13.005,58.501 13.833,58.501 L35.166,58.501 C35.994,58.501 36.666,57.829 36.666,57.001 C36.666,56.173 35.994,55.501 35.166,55.501 Z M47.166,45.501 L13.833,45.501 C13.005,45.501 12.333,46.173 12.333,47.001 C12.333,47.829 13.005,48.501 13.833,48.501 L47.166,48.501 C47.994,48.501 48.666,47.829 48.666,47.001 C48.666,46.173 47.994,45.501 47.166,45.501 Z"></path>
        </g>
    </g>
</svg>