<?xml version="1.0" encoding="UTF-8"?>
<svg width="45px" height="48px" viewBox="0 0 45 48" version="1.1" xmlns="http://www.w3.org/2000/svg" xmlns:xlink="http://www.w3.org/1999/xlink">
    <!-- Generator: Sketch 64 (93537) - https://sketch.com -->
    <title>noun_notification_3075514</title>
    <desc>Created with Sketch.</desc>
    <g id="Page-1" stroke="none" stroke-width="1" fill="none" fill-rule="evenodd">
        <g id="noun_notification_3075514" fill="#666666">
            <path d="M5.97425,21.0914 C5.97425,12.1759 13.2017,4.94852 22.1171,4.94852 C31.0326,4.94852 38.26,12.1759 38.26,21.0914 L38.26,33.9255 L43.6854,39.4301 C44.1099,39.8608 44.2343,40.5042 44.0008,41.0621 C43.7674,41.6199 43.2218,41.983 42.6171,41.983 L1.61711,41.983 C1.01239,41.983 0.466809,41.6199 0.233373,41.0621 C-6.20335e-05,40.5042 0.124304,39.8608 0.548799,39.4301 L5.97425,33.9255 L5.97425,21.0914 Z M22.1171,7.94852 C14.8585,7.94852 8.97425,13.8328 8.97425,21.0914 L8.97425,34.5405 C8.97425,34.9346 8.81918,35.3128 8.54256,35.5935 L5.20169,38.983 L39.0325,38.983 L35.6917,35.5935 C35.415,35.3128 35.26,34.9346 35.26,34.5405 L35.26,21.0914 C35.26,13.8328 29.3757,7.94852 22.1171,7.94852 Z" id="Shape"></path>
            <path d="M19.1885,43.1842 L19.1885,44.2521 C19.1885,46.0492 20.6454,47.5061 22.4425,47.5061 C24.2396,47.5061 25.6965,46.0492 25.6965,44.2521 L25.6965,43.1842 L19.1885,43.1842 Z" id="Path"></path>
            <path d="M22.4425,0.505981 C21.0048,0.505981 19.8393,1.67146 19.8393,3.10916 L19.8393,6.98873 L25.0457,6.98873 L25.0457,3.10916 C25.0457,1.67146 23.8802,0.505981 22.4425,0.505981 Z" id="Path"></path>
        </g>
    </g>
</svg>