<svg xmlns="http://www.w3.org/2000/svg" width="20" height="20" viewBox="0 0 20 20">
  <g id="Practitioners" transform="translate(-975 -347.5)">
    <g id="Path_111806" data-name="Path 111806" transform="translate(-785.999 5519.5)" fill="none" stroke-linecap="round">
      <path d="M1767.015-5172v6.021H1761v7.969h6.016V-5152h8.027v-6.009H1781v-7.969h-5.957V-5172Z" stroke="none"/>
      <path d="M 1769.014526367188 -5170 L 1769.014526367188 -5165.978515625 L 1769.014526367188 -5163.978515625 L 1767.014526367188 -5163.978515625 L 1762.998413085938 -5163.978515625 L 1762.998413085938 -5160.00927734375 L 1767.014526367188 -5160.00927734375 L 1769.014526367188 -5160.00927734375 L 1769.014526367188 -5158.00927734375 L 1769.014526367188 -5154 L 1773.041137695312 -5154 L 1773.041137695312 -5158.00927734375 L 1773.041137695312 -5160.00927734375 L 1775.041137695312 -5160.00927734375 L 1778.998413085938 -5160.00927734375 L 1778.998413085938 -5163.978515625 L 1775.041137695312 -5163.978515625 L 1773.041137695312 -5163.978515625 L 1773.041137695312 -5165.978515625 L 1773.041137695312 -5170 L 1769.014526367188 -5170 M 1767.014526367188 -5172 L 1775.041137695312 -5172 L 1775.041137695312 -5165.978515625 L 1780.998413085938 -5165.978515625 L 1780.998413085938 -5158.00927734375 L 1775.041137695312 -5158.00927734375 L 1775.041137695312 -5152 L 1767.014526367188 -5152 L 1767.014526367188 -5158.00927734375 L 1760.998413085938 -5158.00927734375 L 1760.998413085938 -5165.978515625 L 1767.014526367188 -5165.978515625 L 1767.014526367188 -5172 Z" stroke="none" fill="#10205b"/>
    </g>
  </g>
</svg>
