<?xml version="1.0" encoding="UTF-8"?>
<svg width="7px" height="7px" viewBox="0 0 7 7" version="1.1" xmlns="http://www.w3.org/2000/svg" xmlns:xlink="http://www.w3.org/1999/xlink">
    <!-- Generator: Sketch 64 (93537) - https://sketch.com -->
    <title>search-icon</title>
    <desc>Created with Sketch.</desc>
    <g id="Page-1" stroke="none" stroke-width="1" fill="none" fill-rule="evenodd">
        <g id="search-icon" fill="#666666" fill-rule="nonzero">
            <path d="M2.64635013,0.264066577 C1.33435445,0.264066577 0.263549811,1.33280984 0.263549811,2.64479988 C0.263549811,3.95678987 1.33435884,5.02760019 2.64635013,5.02760019 C3.20725887,5.02760019 3.72298922,4.83073087 4.1304973,4.50411808 L5.63273113,6.00841883 C5.69974892,6.07543668 5.79742951,6.10161016 5.88897756,6.07707997 C5.98052561,6.05254978 6.0520328,5.98104264 6.07656305,5.88949461 C6.10109331,5.79794657 6.0749199,5.70026596 6.0079021,5.63324813 L4.50463482,4.12998057 C4.83097588,3.72201952 5.02759834,3.20583859 5.02760019,2.64479988 C5.02760204,1.33280984 3.95834589,0.264066577 2.64635013,0.264066577 Z M2.64635013,0.793233262 C3.67236252,0.793233262 4.49791678,1.61878985 4.49791678,2.64479988 C4.49791678,3.67080994 3.67235908,4.49843351 2.64635013,4.49843351 C1.62034116,4.49843351 0.792716505,3.67080994 0.792716505,2.64479988 C0.792716505,1.61878985 1.62033764,0.793233262 2.64635013,0.793233262 Z" id="Shape"></path>
        </g>
    </g>
</svg>