<?xml version="1.0" encoding="UTF-8"?>
<svg width="48px" height="48px" viewBox="0 0 48 48" version="1.1" xmlns="http://www.w3.org/2000/svg" xmlns:xlink="http://www.w3.org/1999/xlink">
    <!-- Generator: Sketch 64 (93537) - https://sketch.com -->
    <title>noun_tick_1977477</title>
    <desc>Created with Sketch.</desc>
    <g id="Page-1" stroke="none" stroke-width="1" fill="none" fill-rule="evenodd">
        <g id="noun_tick_1977477" fill="#666666" fill-rule="nonzero">
            <path d="M36.3056641,13.9638672 L18.3544922,31.9145508 L11.6948242,25.2543945 C11.3041992,24.8637695 10.6713867,24.8637695 10.2807617,25.2543945 C9.8901367,25.6450195 9.8901367,26.277832 10.2807617,26.668457 L17.6474609,34.0356445 C17.8349609,34.2231445 18.0893554,34.3286133 18.3544922,34.3286133 C18.619629,34.3286133 18.8740235,34.2231445 19.0615235,34.0356445 L37.7197266,15.3779297 C38.1103516,14.9873047 38.1103516,14.3544922 37.7197266,13.9638672 C37.3291016,13.5732422 36.6962891,13.5732422 36.3056641,13.9638672 Z" id="Path"></path>
            <path d="M24,0 C10.7666016,0 0,10.7666016 0,24 C0,37.2333984 10.7666016,48 24,48 C37.2333984,48 48,37.2333984 48,24 C48,10.7666016 37.2333984,0 24,0 Z M24,46 C11.8691406,46 2,36.1308594 2,24 C2,11.8691406 11.8691406,2 24,2 C36.1308594,2 46,11.8691406 46,24 C46,36.1308594 36.1308594,46 24,46 Z" id="Shape"></path>
        </g>
    </g>
</svg>