<?xml version="1.0" encoding="UTF-8"?>
<svg width="76px" height="86px" viewBox="0 0 76 86" version="1.1" xmlns="http://www.w3.org/2000/svg" xmlns:xlink="http://www.w3.org/1999/xlink">
    <title>noun_Trash_2979296</title>
    <g id="Page-1" stroke="none" stroke-width="1" fill="none" fill-rule="evenodd">
        <g id="noun_Trash_2979296" transform="translate(0.500000, 0.300000)" fill="#666666" fill-rule="nonzero">
            <path d="M26,9 L48.9,9 C48.7,7.9 48.2,6.9 47.4,6.1 L47.3,6 C46.3,5.1 45,4.5 43.6,4.5 L31.2,4.5 C29.7,4.5 28.4,5.1 27.4,6.1 L27.4,6.1 C26.8,6.8 26.2,7.9 26,9 L26,9 Z M52.6,70.1 C52.5,71.3 51.4,72.3 50.1,72.2 C48.9,72.1 47.9,71 48,69.7 L51.7,26.2 C51.8,25 52.9,24 54.2,24.1 C55.5,24.2 56.4,25.3 56.3,26.6 L52.6,70.1 Z M43.9,70 C43.8,71.3 42.8,72.2 41.5,72.2 C40.3,72.2 39.3,71.1 39.3,69.8 L41.1,26.3 C41.2,25 42.2,24.1 43.5,24.1 C44.8,24.2 45.7,25.2 45.7,26.5 L43.9,70 Z M35.7,69.8 C35.8,71 34.8,72.1 33.5,72.2 C32.2,72.3 31.2,71.3 31.1,70 L29.3,26.5 C29.2,25.3 30.2,24.2 31.5,24.1 C32.7,24.1 33.8,25 33.9,26.3 L35.7,69.8 Z M26.9,69.7 C27,71 26.1,72.1 24.8,72.2 C23.6,72.3 22.4,71.4 22.3,70.1 L18.6,26.6 C18.5,25.4 19.4,24.2 20.7,24.1 C21.9,24 23.1,25 23.2,26.2 L26.9,69.7 Z M2.3,15.4 C1,15.4 0,14.4 0,13.1 C0,11.9 1,10.8 2.3,10.8 L10.6,10.8 L21.3,10.8 L21.3,9.9 C21.3,7.2 22.4,4.7 24.2,2.9 L24.2,2.9 C26,1.1 28.5,0 31.2,0 L43.6,0 C46.3,0 48.7,1.1 50.5,2.8 L50.6,2.9 C52.4,4.7 53.5,7.2 53.5,9.9 L53.5,10.8 L64.2,10.8 L72.5,10.8 C73.7,10.8 74.8,11.8 74.8,13.1 C74.8,14.4 73.8,15.4 72.5,15.4 L66.3,15.4 L59.6,83.5 C59.5,84.7 58.5,85.6 57.3,85.6 L57.3,85.6 L17.3,85.6 C16.1,85.6 15,84.6 15,83.4 L8.4,15.5 L2.3,15.5 L2.3,15.4 Z M61.8,15.4 L13.1,15.4 L19.5,80.9 L55.4,80.9 L61.8,15.4 Z" id="Shape"></path>
        </g>
    </g>
</svg>